<svg xmlns="http://www.w3.org/2000/svg" viewBox="-592.171875 -94.6 1684.34375 339.2" style="background: rgba(0, 0, 0, 0);" preserveAspectRatio="xMidYMid"><defs><filter id="editing-extrusion" x="-100%" y="-100%" width="300%" height="300%"><feFlood result="color1" flood-color="#6f6d6d"></feFlood><feConvolveMatrix order="1,1" divisor="1" kernelMatrix="1" in="SourceAlpha" result="extrude"></feConvolveMatrix><feComposite in="color1" in2="extrude" result="comp-extrude" operator="in"></feComposite><feOffset dx="0.5" dy="0.5" in="comp-extrude" result="offset-extrude"></feOffset><feMerge><feMergeNode in="offset-extrude"></feMergeNode><feMergeNode in="SourceGraphic"></feMergeNode></feMerge></filter></defs><g filter="url(#editing-extrusion)"><g transform="translate(-362.5499744415283, 130.17499923706055)"><path d="M28.53-32.93L28.53-98.78L28.53-98.78Q30.32-99.10 34.23-99.67L34.23-99.67L34.23-99.67Q38.14-100.25 41.73-100.25L41.73-100.25L41.73-100.25Q45.48-100.25 48.33-99.67L48.33-99.67L48.33-99.67Q51.18-99.10 53.14-97.64L53.14-97.64L53.14-97.64Q55.09-96.17 56.07-93.56L56.07-93.56L56.07-93.56Q57.05-90.95 57.05-86.72L57.05-86.72L57.05-26.41L57.05-26.41Q57.05-11.90 48.74-4.65L48.74-4.65L48.74-4.65Q40.42 2.61 24.29 2.61L24.29 2.61L24.29 2.61Q15.81 2.61 10.60 0L10.60 0L10.60 0Q6.85-1.79 5.13-4.89L5.13-4.89L5.13-4.89Q3.42-7.99 3.42-11.90L3.42-11.90L3.42-11.90Q3.42-15.16 4.32-17.60L4.32-17.60L4.32-17.60Q5.22-20.05 6.52-21.52L6.52-21.52L6.52-21.52Q9.62-20.86 11.82-20.62L11.82-20.62L11.82-20.62Q14.02-20.38 16.63-20.38L16.63-20.38L16.63-20.38Q22.98-20.38 25.75-23.55L25.75-23.55L25.75-23.55Q28.53-26.73 28.53-32.93L28.53-32.93ZM106.11-77.91L106.11-21.19L106.11-21.19Q107.91-20.86 110.51-20.62L110.51-20.62L110.51-20.62Q113.12-20.38 115.40-20.38L115.40-20.38L115.40-20.38Q120.95-20.38 125.59-22.01L125.59-22.01L125.59-22.01Q130.24-23.64 133.58-27.06L133.58-27.06L133.58-27.06Q136.92-30.48 138.79-35.94L138.79-35.94L138.79-35.94Q140.67-41.40 140.67-49.06L140.67-49.06L140.67-49.06Q140.67-63.73 133.82-71.15L133.82-71.15L133.82-71.15Q126.98-78.57 115.57-78.57L115.57-78.57L115.57-78.57Q113.29-78.57 110.92-78.40L110.92-78.40L110.92-78.40Q108.56-78.24 106.11-77.91L106.11-77.91ZM115.24 2.61L115.24 2.61L115.24 2.61Q112.47 2.61 108.88 2.45L108.88 2.45L108.88 2.45Q105.30 2.28 101.47 1.79L101.47 1.79L101.47 1.79Q97.64 1.30 93.81 0.57L93.81 0.57L93.81 0.57Q89.98-0.16 86.72-1.47L86.72-1.47L86.72-1.47Q77.75-4.89 77.75-13.37L77.75-13.37L77.75-89.49L77.75-89.49Q77.75-92.91 79.63-94.78L79.63-94.78L79.63-94.78Q81.50-96.66 84.76-97.80L84.76-97.80L84.76-97.80Q91.77-100.08 99.59-100.82L99.59-100.82L99.59-100.82Q107.42-101.55 113.61-101.55L113.61-101.55L113.61-101.55Q126.33-101.55 136.68-98.45L136.68-98.45L136.68-98.45Q147.03-95.36 154.44-88.92L154.44-88.92L154.44-88.92Q161.86-82.48 165.93-72.70L165.93-72.70L165.93-72.70Q170.01-62.92 170.01-49.55L170.01-49.55L170.01-49.55Q170.01-36.51 166.10-26.81L166.10-26.81L166.10-26.81Q162.19-17.12 154.93-10.51L154.93-10.51L154.93-10.51Q147.68-3.91 137.57-0.65L137.57-0.65L137.57-0.65Q127.47 2.61 115.24 2.61ZM245.48-3.26L245.48-3.26L245.48-3.26Q243.20-1.30 238.39 0.16L238.39 0.16L238.39 0.16Q233.58 1.63 227.87 1.63L227.87 1.63L227.87 1.63Q221.03 1.63 216.14-0.41L216.14-0.41L216.14-0.41Q211.25-2.45 209.45-6.03L209.45-6.03L209.45-6.03Q207.66-9.78 205.05-15.73L205.05-15.73L205.05-15.73Q202.45-21.68 199.59-29.01L199.59-29.01L199.59-29.01Q196.74-36.35 193.73-44.58L193.73-44.58L193.73-44.58Q190.71-52.81 187.94-61.29L187.94-61.29L187.94-61.29Q185.17-69.76 182.72-77.91L182.72-77.91L182.72-77.91Q180.28-86.06 178.48-93.24L178.48-93.24L178.48-93.24Q180.77-95.52 185.09-97.39L185.09-97.39L185.09-97.39Q189.41-99.27 194.30-99.27L194.30-99.27L194.30-99.27Q200.33-99.27 204.16-96.74L204.16-96.74L204.16-96.74Q207.99-94.21 209.78-87.37L209.78-87.37L209.78-87.37Q214.18-71.39 218.66-56.81L218.66-56.81L218.66-56.81Q223.15-42.22 228.04-26.41L228.04-26.41L229.01-26.41L229.01-26.41Q233.42-41.73 238.06-59.82L238.06-59.82L238.06-59.82Q242.71-77.91 246.94-95.84L246.94-95.84L246.94-95.84Q249.88-97.31 253.22-98.29L253.22-98.29L253.22-98.29Q256.56-99.27 260.80-99.27L260.80-99.27L260.80-99.27Q266.83-99.27 271.07-96.58L271.07-96.58L271.07-96.58Q275.31-93.89 275.31-87.69L275.31-87.69L275.31-87.69Q275.31-84.11 273.60-77.26L273.60-77.26L273.60-77.26Q271.88-70.42 269.19-61.86L269.19-61.86L269.19-61.86Q266.50-53.30 263.16-44.01L263.16-44.01L263.16-44.01Q259.82-34.72 256.48-26.49L256.48-26.49L256.48-26.49Q253.14-18.26 250.20-11.98L250.20-11.98L250.20-11.98Q247.27-5.71 245.48-3.26ZM318.01-52.98L326.65-52.98L326.65-52.98Q333.50-52.98 337.17-56.15L337.17-56.15L337.17-56.15Q340.83-59.33 340.83-65.85L340.83-65.85L340.83-65.85Q340.83-72.05 337.00-75.39L337.00-75.39L337.00-75.39Q333.17-78.73 325.84-78.73L325.84-78.73L325.84-78.73Q323.23-78.73 321.52-78.65L321.52-78.65L321.52-78.65Q319.81-78.57 318.01-78.24L318.01-78.24L318.01-52.98ZM318.18-30.64L318.18-0.65L318.18-0.65Q316.38-0.16 312.55 0.33L312.55 0.33L312.55 0.33Q308.72 0.82 304.97 0.82L304.97 0.82L304.97 0.82Q301.22 0.82 298.37 0.24L298.37 0.24L298.37 0.24Q295.52-0.33 293.56-1.79L293.56-1.79L293.56-1.79Q291.61-3.26 290.63-5.87L290.63-5.87L290.63-5.87Q289.65-8.48 289.65-12.71L289.65-12.71L289.65-89.49L289.65-89.49Q289.65-92.91 291.53-94.78L291.53-94.78L291.53-94.78Q293.40-96.66 296.66-97.80L296.66-97.80L296.66-97.80Q302.20-99.76 309.29-100.65L309.29-100.65L309.29-100.65Q316.38-101.55 323.56-101.55L323.56-101.55L323.56-101.55Q346.05-101.55 357.95-91.93L357.95-91.93L357.95-91.93Q369.85-82.31 369.85-65.85L369.85-65.85L369.85-65.85Q369.85-57.87 367.32-51.43L367.32-51.43L367.32-51.43Q364.79-44.99 359.82-40.34L359.82-40.34L359.82-40.34Q354.85-35.70 347.27-33.17L347.27-33.17L347.27-33.17Q339.69-30.64 329.75-30.64L329.75-30.64L318.18-30.64ZM443.20 0.49L399.51 0.49L399.51 0.49Q392.50 0.49 388.43-3.59L388.43-3.59L388.43-3.59Q384.35-7.66 384.35-14.67L384.35-14.67L384.35-98.94L384.35-98.94Q386.15-99.27 390.06-99.84L390.06-99.84L390.06-99.84Q393.97-100.41 397.56-100.41L397.56-100.41L397.56-100.41Q401.31-100.41 404.16-99.84L404.16-99.84L404.16-99.84Q407.01-99.27 408.97-97.80L408.97-97.80L408.97-97.80Q410.92-96.33 411.90-93.73L411.90-93.73L411.90-93.73Q412.88-91.12 412.88-86.88L412.88-86.88L412.88-22.49L450.21-22.49L450.21-22.49Q451.35-20.70 452.33-17.69L452.33-17.69L452.33-17.69Q453.30-14.67 453.30-11.41L453.30-11.41L453.30-11.41Q453.30-4.89 450.53-2.20L450.53-2.20L450.53-2.20Q447.76 0.49 443.20 0.49L443.20 0.49ZM495.36-30.32L460.48-30.32L460.48-30.32Q459.33-32.11 458.36-35.05L458.36-35.05L458.36-35.05Q457.38-37.98 457.38-41.24L457.38-41.24L457.38-41.24Q457.38-47.27 460.15-49.96L460.15-49.96L460.15-49.96Q462.92-52.65 467.32-52.65L467.32-52.65L502.20-52.65L502.20-52.65Q503.18-50.86 504.24-47.92L504.24-47.92L504.24-47.92Q505.30-44.99 505.30-41.73L505.30-41.73L505.30-41.73Q505.30-35.70 502.53-33.01L502.53-33.01L502.53-33.01Q499.76-30.32 495.36-30.32L495.36-30.32ZM535.94-98.78L590.22-98.78L590.22-98.78Q591.36-96.98 592.26-93.97L592.26-93.97L592.26-93.97Q593.16-90.95 593.16-87.69L593.16-87.69L593.16-87.69Q593.16-81.34 590.47-78.65L590.47-78.65L590.47-78.65Q587.78-75.96 583.21-75.96L583.21-75.96L548.98-75.96L548.98-57.54L584.68-57.54L584.68-57.54Q585.99-55.75 586.88-52.81L586.88-52.81L586.88-52.81Q587.78-49.88 587.78-46.62L587.78-46.62L587.78-46.62Q587.78-40.42 585.09-37.73L585.09-37.73L585.09-37.73Q582.40-35.05 577.84-35.05L577.84-35.05L549.31-35.05L549.31-0.65L549.31-0.65Q547.52-0.16 543.69 0.33L543.69 0.33L543.69 0.33Q539.86 0.82 536.11 0.82L536.11 0.82L536.11 0.82Q532.36 0.82 529.51 0.24L529.51 0.24L529.51 0.24Q526.65-0.33 524.70-1.79L524.70-1.79L524.70-1.79Q522.74-3.26 521.76-5.87L521.76-5.87L521.76-5.87Q520.79-8.48 520.79-12.71L520.79-12.71L520.79-83.62L520.79-83.62Q520.79-90.63 524.86-94.70L524.86-94.70L524.86-94.70Q528.94-98.78 535.94-98.78L535.94-98.78ZM635.54-17.60L635.54-17.60L635.54-17.60Q638.31-17.60 641.65-18.17L641.65-18.17L641.65-18.17Q644.99-18.75 646.62-19.72L646.62-19.72L646.62-32.76L634.88-31.79L634.88-31.79Q630.32-31.46 627.39-29.83L627.39-29.83L627.39-29.83Q624.45-28.20 624.45-24.94L624.45-24.94L624.45-24.94Q624.45-21.68 626.98-19.64L626.98-19.64L626.98-19.64Q629.51-17.60 635.54-17.60ZM634.23-81.66L634.23-81.66L634.23-81.66Q643.04-81.66 650.29-79.87L650.29-79.87L650.29-79.87Q657.54-78.08 662.68-74.41L662.68-74.41L662.68-74.41Q667.81-70.74 670.58-65.12L670.58-65.12L670.58-65.12Q673.35-59.50 673.35-51.83L673.35-51.83L673.35-15.32L673.35-15.32Q673.35-11.08 670.99-8.39L670.99-8.39L670.99-8.39Q668.63-5.71 665.37-3.75L665.37-3.75L665.37-3.75Q654.77 2.61 635.54 2.61L635.54 2.61L635.54 2.61Q626.90 2.61 619.97 0.98L619.97 0.98L619.97 0.98Q613.04-0.65 608.07-3.91L608.07-3.91L608.07-3.91Q603.10-7.17 600.41-12.22L600.41-12.22L600.41-12.22Q597.72-17.28 597.72-23.96L597.72-23.96L597.72-23.96Q597.72-35.21 604.40-41.24L604.40-41.24L604.40-41.24Q611.09-47.27 625.11-48.74L625.11-48.74L646.46-51.02L646.46-52.16L646.46-52.16Q646.46-56.89 642.30-58.92L642.30-58.92L642.30-58.92Q638.14-60.96 630.32-60.96L630.32-60.96L630.32-60.96Q624.13-60.96 618.26-59.66L618.26-59.66L618.26-59.66Q612.39-58.35 607.66-56.40L607.66-56.40L607.66-56.40Q605.55-57.87 604.08-60.88L604.08-60.88L604.08-60.88Q602.61-63.90 602.61-67.16L602.61-67.16L602.61-67.16Q602.61-71.39 604.65-73.92L604.65-73.92L604.65-73.92Q606.69-76.45 610.92-78.24L610.92-78.24L610.92-78.24Q615.65-80.03 622.09-80.85L622.09-80.85L622.09-80.85Q628.53-81.66 634.23-81.66ZM734.97-59.82L734.97-59.82L734.97-59.82Q730.89-59.82 727.22-58.52L727.22-58.52L727.22-58.52Q723.56-57.21 720.87-54.69L720.87-54.69L720.87-54.69Q718.18-52.16 716.55-48.41L716.55-48.41L716.55-48.41Q714.92-44.66 714.92-39.61L714.92-39.61L714.92-39.61Q714.92-29.50 720.70-24.45L720.70-24.45L720.70-24.45Q726.49-19.40 734.80-19.40L734.80-19.40L734.80-19.40Q739.69-19.40 743.28-20.54L743.28-20.54L743.28-20.54Q746.87-21.68 749.64-22.98L749.64-22.98L749.64-22.98Q752.90-20.70 754.53-18.01L754.53-18.01L754.53-18.01Q756.16-15.32 756.16-11.57L756.16-11.57L756.16-11.57Q756.16-4.89 749.80-1.22L749.80-1.22L749.80-1.22Q743.44 2.45 732.20 2.45L732.20 2.45L732.20 2.45Q721.93 2.45 713.61-0.57L713.61-0.57L713.61-0.57Q705.30-3.59 699.35-9.05L699.35-9.05L699.35-9.05Q693.40-14.51 690.14-22.17L690.14-22.17L690.14-22.17Q686.88-29.83 686.88-39.12L686.88-39.12L686.88-39.12Q686.88-49.88 690.39-57.95L690.39-57.95L690.39-57.95Q693.89-66.02 699.92-71.23L699.92-71.23L699.92-71.23Q705.95-76.45 713.86-79.06L713.86-79.06L713.86-79.06Q721.76-81.66 730.57-81.66L730.57-81.66L730.57-81.66Q742.30-81.66 748.66-77.42L748.66-77.42L748.66-77.42Q755.02-73.19 755.02-66.50L755.02-66.50L755.02-66.50Q755.02-63.41 753.55-60.72L753.55-60.72L753.55-60.72Q752.08-58.03 750.13-56.07L750.13-56.07L750.13-56.07Q747.36-57.38 743.44-58.60L743.44-58.60L743.44-58.60Q739.53-59.82 734.97-59.82ZM809.46 2.61L809.46 2.61L809.46 2.61Q799.84 2.61 791.61-0.08L791.61-0.08L791.61-0.08Q783.38-2.77 777.27-8.15L777.27-8.15L777.27-8.15Q771.15-13.53 767.65-21.68L767.65-21.68L767.65-21.68Q764.14-29.83 764.14-40.75L764.14-40.75L764.14-40.75Q764.14-51.51 767.65-59.25L767.65-59.25L767.65-59.25Q771.15-66.99 776.86-71.96L776.86-71.96L776.86-71.96Q782.56-76.94 789.90-79.30L789.90-79.30L789.90-79.30Q797.23-81.66 804.89-81.66L804.89-81.66L804.89-81.66Q813.53-81.66 820.62-79.06L820.62-79.06L820.62-79.06Q827.71-76.45 832.85-71.88L832.85-71.88L832.85-71.88Q837.98-67.32 840.84-60.96L840.84-60.96L840.84-60.96Q843.69-54.61 843.69-47.11L843.69-47.11L843.69-47.11Q843.69-41.57 840.59-38.63L840.59-38.63L840.59-38.63Q837.49-35.70 831.95-34.88L831.95-34.88L791.69-28.85L791.69-28.85Q793.48-23.47 799.03-20.78L799.03-20.78L799.03-20.78Q804.57-18.09 811.74-18.09L811.74-18.09L811.74-18.09Q818.42-18.09 824.37-19.80L824.37-19.80L824.37-19.80Q830.32-21.52 834.07-23.80L834.07-23.80L834.07-23.80Q836.68-22.17 838.47-19.23L838.47-19.23L838.47-19.23Q840.26-16.30 840.26-13.04L840.26-13.04L840.26-13.04Q840.26-5.71 833.42-2.12L833.42-2.12L833.42-2.12Q828.20 0.65 821.68 1.63L821.68 1.63L821.68 1.63Q815.16 2.61 809.46 2.61ZM804.89-61.45L804.89-61.45L804.89-61.45Q800.98-61.45 798.13-60.15L798.13-60.15L798.13-60.15Q795.28-58.84 793.48-56.81L793.48-56.81L793.48-56.81Q791.69-54.77 790.79-52.24L790.79-52.24L790.79-52.24Q789.90-49.72 789.74-47.11L789.74-47.11L817.61-51.67L817.61-51.67Q817.12-54.93 814.02-58.19L814.02-58.19L814.02-58.19Q810.92-61.45 804.89-61.45ZM857.38-19.23L857.38-106.11L857.38-106.11Q859.01-106.60 862.60-107.17L862.60-107.17L862.60-107.17Q866.18-107.74 869.93-107.74L869.93-107.74L869.93-107.74Q873.52-107.74 876.37-107.25L876.37-107.25L876.37-107.25Q879.22-106.77 881.18-105.30L881.18-105.30L881.18-105.30Q883.13-103.83 884.11-101.30L884.11-101.30L884.11-101.30Q885.09-98.78 885.09-94.70L885.09-94.70L885.09-78.73L885.09-78.73Q889.16-80.36 892.83-81.01L892.83-81.01L892.83-81.01Q896.50-81.66 900.90-81.66L900.90-81.66L900.90-81.66Q908.73-81.66 915.73-78.89L915.73-78.89L915.73-78.89Q922.74-76.12 928.12-70.82L928.12-70.82L928.12-70.82Q933.50-65.53 936.60-57.70L936.60-57.70L936.60-57.70Q939.69-49.88 939.69-39.61L939.69-39.61L939.69-39.61Q939.69-29.01 936.52-21.11L936.52-21.11L936.52-21.11Q933.34-13.20 927.63-7.99L927.63-7.99L927.63-7.99Q921.93-2.77 913.70-0.08L913.70-0.08L913.70-0.08Q905.46 2.61 895.52 2.61L895.52 2.61L895.52 2.61Q884.76 2.61 877.27 0.08L877.27 0.08L877.27 0.08Q869.77-2.45 864.55-6.19L864.55-6.19L864.55-6.19Q857.38-11.25 857.38-19.23L857.38-19.23ZM895.52-19.23L895.52-19.23L895.52-19.23Q903.02-19.23 907.18-24.37L907.18-24.37L907.18-24.37Q911.33-29.50 911.33-39.61L911.33-39.61L911.33-39.61Q911.33-49.88 907.10-54.93L907.10-54.93L907.10-54.93Q902.86-59.98 895.68-59.98L895.68-59.98L895.68-59.98Q892.42-59.98 890.06-59.33L890.06-59.33L890.06-59.33Q887.70-58.68 884.93-57.38L884.93-57.38L884.93-21.84L884.93-21.84Q886.72-20.70 889.25-19.97L889.25-19.97L889.25-19.97Q891.77-19.23 895.52-19.23ZM1035.21-39.61L1035.21-39.61L1035.21-39.61Q1035.21-29.50 1032.12-21.60L1032.12-21.60L1032.12-21.60Q1029.02-13.69 1023.40-8.31L1023.40-8.31L1023.40-8.31Q1017.77-2.93 1009.95-0.16L1009.95-0.16L1009.95-0.16Q1002.12 2.61 992.51 2.61L992.51 2.61L992.51 2.61Q982.89 2.61 975.07-0.33L975.07-0.33L975.07-0.33Q967.24-3.26 961.62-8.72L961.62-8.72L961.62-8.72Q955.99-14.18 952.90-22.01L952.90-22.01L952.90-22.01Q949.80-29.83 949.80-39.61L949.80-39.61L949.80-39.61Q949.80-49.23 952.90-57.05L952.90-57.05L952.90-57.05Q955.99-64.87 961.62-70.33L961.62-70.33L961.62-70.33Q967.24-75.80 975.07-78.73L975.07-78.73L975.07-78.73Q982.89-81.66 992.51-81.66L992.51-81.66L992.51-81.66Q1002.12-81.66 1009.95-78.65L1009.95-78.65L1009.95-78.65Q1017.77-75.63 1023.40-70.17L1023.40-70.17L1023.40-70.17Q1029.02-64.71 1032.12-56.89L1032.12-56.89L1032.12-56.89Q1035.21-49.06 1035.21-39.61ZM978.16-39.61L978.16-39.61L978.16-39.61Q978.16-29.67 981.99-24.37L981.99-24.37L981.99-24.37Q985.82-19.07 992.67-19.07L992.67-19.07L992.67-19.07Q999.52-19.07 1003.18-24.45L1003.18-24.45L1003.18-24.45Q1006.85-29.83 1006.85-39.61L1006.85-39.61L1006.85-39.61Q1006.85-49.39 1003.10-54.69L1003.10-54.69L1003.10-54.69Q999.35-59.98 992.51-59.98L992.51-59.98L992.51-59.98Q985.66-59.98 981.91-54.69L981.91-54.69L981.91-54.69Q978.16-49.39 978.16-39.61ZM1130.73-39.61L1130.73-39.61L1130.73-39.61Q1130.73-29.50 1127.63-21.60L1127.63-21.60L1127.63-21.60Q1124.54-13.69 1118.91-8.31L1118.91-8.31L1118.91-8.31Q1113.29-2.93 1105.47-0.16L1105.47-0.16L1105.47-0.16Q1097.64 2.61 1088.02 2.61L1088.02 2.61L1088.02 2.61Q1078.41 2.61 1070.58-0.33L1070.58-0.33L1070.58-0.33Q1062.76-3.26 1057.14-8.72L1057.14-8.72L1057.14-8.72Q1051.51-14.18 1048.42-22.01L1048.42-22.01L1048.42-22.01Q1045.32-29.83 1045.32-39.61L1045.32-39.61L1045.32-39.61Q1045.32-49.23 1048.42-57.05L1048.42-57.05L1048.42-57.05Q1051.51-64.87 1057.14-70.33L1057.14-70.33L1057.14-70.33Q1062.76-75.80 1070.58-78.73L1070.58-78.73L1070.58-78.73Q1078.41-81.66 1088.02-81.66L1088.02-81.66L1088.02-81.66Q1097.64-81.66 1105.47-78.65L1105.47-78.65L1105.47-78.65Q1113.29-75.63 1118.91-70.17L1118.91-70.17L1118.91-70.17Q1124.54-64.71 1127.63-56.89L1127.63-56.89L1127.63-56.89Q1130.73-49.06 1130.73-39.61ZM1073.68-39.61L1073.68-39.61L1073.68-39.61Q1073.68-29.67 1077.51-24.37L1077.51-24.37L1077.51-24.37Q1081.34-19.07 1088.19-19.07L1088.19-19.07L1088.19-19.07Q1095.03-19.07 1098.70-24.45L1098.70-24.45L1098.70-24.45Q1102.37-29.83 1102.37-39.61L1102.37-39.61L1102.37-39.61Q1102.37-49.39 1098.62-54.69L1098.62-54.69L1098.62-54.69Q1094.87-59.98 1088.02-59.98L1088.02-59.98L1088.02-59.98Q1081.18-59.98 1077.43-54.69L1077.43-54.69L1077.43-54.69Q1073.68-49.39 1073.68-39.61ZM1195.60-40.42L1221.68-14.34L1221.68-14.34Q1220.87-6.68 1217.20-2.61L1217.20-2.61L1217.20-2.61Q1213.53 1.47 1206.53 1.47L1206.53 1.47L1206.53 1.47Q1201.31 1.47 1197.23-1.06L1197.23-1.06L1197.23-1.06Q1193.16-3.59 1188.43-9.62L1188.43-9.62L1172.30-29.83L1172.30-0.16L1172.30-0.16Q1170.50 0.16 1167.00 0.73L1167.00 0.73L1167.00 0.73Q1163.49 1.30 1159.91 1.30L1159.91 1.30L1159.91 1.30Q1156.32 1.30 1153.47 0.82L1153.47 0.82L1153.47 0.82Q1150.62 0.33 1148.66-1.14L1148.66-1.14L1148.66-1.14Q1146.70-2.61 1145.65-5.13L1145.65-5.13L1145.65-5.13Q1144.59-7.66 1144.59-11.74L1144.59-11.74L1144.59-106.11L1144.59-106.11Q1146.38-106.60 1149.88-107.17L1149.88-107.17L1149.88-107.17Q1153.39-107.74 1156.97-107.74L1156.97-107.74L1156.97-107.74Q1160.56-107.74 1163.41-107.25L1163.41-107.25L1163.41-107.25Q1166.26-106.77 1168.22-105.30L1168.22-105.30L1168.22-105.30Q1170.18-103.83 1171.24-101.30L1171.24-101.30L1171.24-101.30Q1172.30-98.78 1172.30-94.70L1172.30-94.70L1172.30-51.67L1200.33-80.36L1200.33-80.36Q1208.81-80.36 1213.94-76.61L1213.94-76.61L1213.94-76.61Q1219.08-72.86 1219.08-67.16L1219.08-67.16L1219.08-67.16Q1219.08-64.71 1218.26-62.67L1218.26-62.67L1218.26-62.67Q1217.45-60.64 1215.74-58.52L1215.74-58.52L1215.74-58.52Q1214.02-56.40 1211.33-54.03L1211.33-54.03L1211.33-54.03Q1208.64-51.67 1205.06-48.57L1205.06-48.57L1195.60-40.42Z" fill="#1877f2"></path></g></g><style>text {
  font-size: 164px;
  font-family: Arial Black;
  dominant-baseline: central;
  text-anchor: middle;
}</style></svg>